<?xml version="1.0" encoding="utf-8"?>
<!-- Generator: Adobe Illustrator 26.5.0, SVG Export Plug-In . SVG Version: 6.00 Build 0)  -->
<svg version="1.1" id="Layer_1" xmlns="http://www.w3.org/2000/svg" xmlns:xlink="http://www.w3.org/1999/xlink" x="0px" y="0px"
	 viewBox="0 0 142.9 168.2" style="enable-background:new 0 0 142.9 168.2;" xml:space="preserve">
<style type="text/css">
	.st0{fill:#F2E3DD;}
	.st1{fill:#FF9999;}
	.st2{fill:#FF9999;stroke:#FF9999;stroke-width:0.75;stroke-linecap:round;stroke-linejoin:round;}
	.st3{fill:none;stroke:#000000;stroke-linecap:round;stroke-miterlimit:10;}
	.st4{fill:none;stroke:#9D8EDD;stroke-miterlimit:10;}
	.st5{opacity:0.5;fill:#9D8EDD;enable-background:new    ;}
	.st6{fill:#FFFFFF;}
	.st7{fill:none;stroke:#9D8EDD;stroke-linecap:round;stroke-miterlimit:10;}
	.st8{fill:#8CDDC7;}
	.st9{fill:#FFC5C5;}
	.st10{fill:none;stroke:#FFFFFF;stroke-miterlimit:10;}
	.st11{fill:#9D8EDD;}
</style>
<g id="Layer_1_00000109022446823021348950000003205397878526224792_">
	<g>
		<rect x="33.8" y="27.9" width="76.3" height="42.2"/>
		<path d="M37.1,68.6V23.7c0-2.8,2.3-5.1,5.1-5.1h59.4c2.8,0,5.1,2.3,5.1,5.1v44.9c0,0.8,0.7,1.5,1.5,1.5h4.3c0.8,0,1.5-0.7,1.5-1.5
			v-3.1V33c0-18.2-11.1-33-42.5-33C42.2,0,29.1,11.7,29.1,33v35.6c0,0.8,0.7,1.5,1.5,1.5h4.9C36.4,70.1,37.1,69.4,37.1,68.6
			L37.1,68.6z"/>
	</g>
	<path class="st0" d="M51.3,16.4h41.1c7.9,0,14.3,6.4,14.3,14.3v29.2c0,7.9-6.4,14.3-14.3,14.3H51.3c-7.9,0-14.3-6.4-14.3-14.3V30.6
		C37.1,22.8,43.5,16.4,51.3,16.4z"/>
	<circle class="st1" cx="94.7" cy="61.1" r="4"/>
	<circle class="st1" cx="47.8" cy="61.1" r="4"/>
	<polygon class="st2" points="71.4,45 66.3,58.7 76.8,58.7 	"/>
	<circle cx="49.7" cy="51.1" r="2.7"/>
	<line class="st3" x1="44.4" y1="49" x2="54.2" y2="49"/>
	<circle cx="93.3" cy="51.1" r="2.7"/>
	<line class="st3" x1="88.4" y1="49" x2="98.3" y2="49"/>
	<g>
		<g>
			<circle class="st4" cx="93.3" cy="51.9" r="11.5"/>
			<circle class="st5" cx="93.3" cy="51.9" r="11.5"/>
			<circle class="st6" cx="99.1" cy="44.4" r="1.5"/>
		</g>
		<g>
			<circle class="st4" cx="49.7" cy="51.9" r="11.5"/>
			<circle class="st5" cx="49.7" cy="51.9" r="11.5"/>
			<circle class="st6" cx="55.2" cy="44.4" r="1.5"/>
		</g>
		<line class="st7" x1="61.5" y1="49.1" x2="81.6" y2="49.1"/>
	</g>
	<path class="st3" d="M68.4,65.4c0,0,0.2,3.1,3.1,3.1s2.9-3.1,2.9-3.1"/>
	<path d="M45.9,12.9h52.2c5.1,0,9.3,4.1,9.3,9.2v7.4c0,5.1-4.1,9.2-9.3,9.2H45.9c-5.1,0-9.3-4.1-9.3-9.2v-7.4
		C36.7,17,40.8,12.9,45.9,12.9z"/>
	<path class="st0" d="M109.5,46.6c0,0,0.7-0.9,2-0.9c1.6,0,0.7,5.7,0,6.6s-2.1,1.4-2.1,1.4L109.5,46.6L109.5,46.6z"/>
</g>
<g id="Layer_2_00000106839163628827954500000017326524171791208359_">
	<path class="st8" d="M12.2,72.4h118.5c6.7,0,12.2,5.5,12.2,12.2V156c0,6.7-5.5,12.2-12.2,12.2H12.2C5.5,168.2,0,162.7,0,156V84.6
		C0,77.9,5.5,72.4,12.2,72.4z"/>
	<path class="st9" d="M71.5,131.2c4.9,0,4-2.9,4-6.3c0-3.5-0.7-12.9-4-12.9s-4.1,9.7-4.1,12.9C67.4,128,66.3,131.2,71.5,131.2z"/>
	<ellipse class="st10" cx="71.5" cy="121" rx="6.6" ry="2"/>
	<path class="st11" d="M71,120c8.1,0,13.6-2.8,13.6-5.3c0-4.3-6.7-9.6-12.9-9.6c-7.2,0-12.9,5.3-12.9,9.9
		C58.7,117.2,64.2,120,71,120L71,120z"/>
	<circle class="st6" cx="81.6" cy="114.2" r="1"/>
	<circle class="st6" cx="77.4" cy="115.9" r="1"/>
	<circle class="st6" cx="71.7" cy="116.6" r="1"/>
	<circle class="st6" cx="61.6" cy="114.3" r="1"/>
	<circle class="st6" cx="66.2" cy="116" r="1"/>
</g>
</svg>
